<?xml version="1.0" encoding="utf-8"?>
<!-- Generator: Adobe Illustrator 16.0.0, SVG Export Plug-In . SVG Version: 6.00 Build 0)  -->
<!DOCTYPE svg PUBLIC "-//W3C//DTD SVG 1.1//EN" "http://www.w3.org/Graphics/SVG/1.1/DTD/svg11.dtd">
<svg version="1.1" id="图层_1" xmlns="http://www.w3.org/2000/svg" xmlns:xlink="http://www.w3.org/1999/xlink" x="0px" y="0px"
	 width="40px" height="22px" viewBox="0 0 40 22" enable-background="new 0 0 40 22" xml:space="preserve">
<g id="图层_2" display="none">
	<rect y="-0.013" display="inline" fill="#A0A0A0" width="40" height="22.025"/>
</g>
<g id="motor" display="none">
	<g display="inline">
		<g>
			<path fill="none" stroke="#FFFFFF" stroke-width="2" stroke-miterlimit="10" d="M28.646,16.951c0,0.427-0.386,0.773-0.859,0.773
				H9.506c-0.476,0-0.86-0.348-0.86-0.773V4.998c0-0.427,0.385-0.774,0.86-0.774h18.28c0.475,0,0.858,0.347,0.858,0.774v11.953
				H28.646z"/>
		</g>
		<g>
			<path fill="none" stroke="#FFFFFF" stroke-width="2" stroke-miterlimit="10" d="M28.889,7.027h1.807
				c0.756,0,1.367,0.551,1.367,1.232v5.43c0,0.68-0.611,1.23-1.367,1.23h-2.071"/>
		</g>
		<rect x="5.104" y="10.074" fill="#FFFFFF" width="4.208" height="1.743"/>
		<rect x="31.688" y="10.074" fill="#FFFFFF" width="4.209" height="1.743"/>
	</g>
</g>
<g id="DCmotor" display="none">
	<g display="inline">
		<g>
			<path fill="none" stroke="#FFFFFF" stroke-width="2" stroke-miterlimit="10" d="M28.583,16.951c0,0.427-0.385,0.773-0.858,0.773
				H9.443c-0.476,0-0.86-0.348-0.86-0.773V4.998c0-0.427,0.385-0.774,0.86-0.774h18.28c0.476,0,0.859,0.347,0.859,0.774
				L28.583,16.951L28.583,16.951z"/>
		</g>
		<g>
			<path fill="none" stroke="#FFFFFF" stroke-width="2" stroke-miterlimit="10" d="M28.826,7.027h1.806
				C31.388,7.027,32,7.578,32,8.259v5.43c0,0.68-0.612,1.23-1.368,1.23h-2.071"/>
		</g>
		<rect x="5.042" y="10.074" fill="#FFFFFF" width="4.208" height="1.743"/>
		<rect x="31.625" y="10.074" fill="#FFFFFF" width="4.208" height="1.743"/>
	</g>
	
		<text transform="matrix(1 0 0 1 12.1875 14.1641)" display="inline" fill="#FFFFFF" font-family="'MicrosoftYaHeiUI-Bold'" font-size="8.266">DC</text>
</g>
<g id="编码电机" display="none">
	<g display="inline">
		<g>
			<path fill="none" stroke="#FFFFFF" stroke-width="2" stroke-miterlimit="10" d="M24.854,18.383c0,0.428-0.385,0.773-0.858,0.773
				H9.714c-0.476,0-0.86-0.346-0.86-0.773V3.43c0-0.427,0.385-0.774,0.86-0.774h14.28c0.475,0,0.859,0.347,0.859,0.774V18.383
				L24.854,18.383z"/>
		</g>
		<g>
			<path fill="none" stroke="#FFFFFF" stroke-width="2" stroke-miterlimit="10" d="M25.249,7.234h1.007
				c0.756,0,1.368,0.551,1.368,1.232v5.431c0,0.68-0.612,1.231-1.368,1.231h-0.943"/>
		</g>
		<rect x="27.896" y="9.941" fill="#FFFFFF" width="6.541" height="1.743"/>
	</g>
</g>
<g id="编码电机_x5F_复制">
	<g>
		<g>
			<g>
				<path fill="#FFFFFF" d="M26.995,19.75H9.714c-1.025,0-1.86-0.796-1.86-1.773V4.024c0-0.978,0.834-1.774,1.86-1.774h17.28
					c1.025,0,1.859,0.796,1.859,1.774v3.919h-2V4.25h-17v13.5h17v-5.814h2v6.041C28.854,18.954,28.02,19.75,26.995,19.75z"/>
			</g>
		</g>
		<path fill="#FFFFFF" d="M30.232,13.368c-0.14,0-0.284-0.01-0.434-0.029l-8.848-0.717c-0.874-0.118-1.6-0.543-2.1-1.201
			c-0.5-0.658-0.712-1.472-0.6-2.291c0.228-1.662,1.775-2.88,3.486-2.645l8.632,1.607c0.796,0.107,1.507,0.503,1.953,1.107
			c0.393,0.532,0.557,1.193,0.467,1.871c-0.01,0.556-0.242,1.106-0.646,1.523C31.659,13.094,30.98,13.368,30.232,13.368z
			 M21.314,8.458c-0.543,0-1.008,0.406-1.082,0.945c-0.04,0.29,0.036,0.577,0.212,0.809c0.176,0.233,0.433,0.383,0.723,0.422
			l8.847,0.717c0.11,0.014,0.165,0.017,0.218,0.017c0.202,0,0.371-0.059,0.474-0.165c0.063-0.065,0.085-0.131,0.084-0.172
			l-0.004-0.098l0.017-0.096c0.029-0.177-0.001-0.328-0.09-0.448c-0.122-0.166-0.357-0.28-0.662-0.322L21.418,8.46
			C21.416,8.458,21.363,8.458,21.314,8.458z"/>
	</g>
</g>
<g id="switch" display="none">
	<path display="inline" fill="#FFFFFF" d="M22.904,18.23c-3.171,0-7.784-0.006-8.497-0.008c-4.089,0-7.341-3.246-7.341-7.236
		c0-3.981,3.251-7.22,7.248-7.22l8.278-0.002c1.73,0,3.126,0,3.424,0.002c3.779,0.294,6.713,3.465,6.713,7.22
		c0,3.765-2.966,6.943-6.752,7.234C25.973,18.229,25.966,18.23,22.904,18.23z M22.593,4.765L14.4,4.767
		c-3.531,0-6.333,2.791-6.333,6.22c0,3.439,2.803,6.236,6.248,6.236c1.224,0.002,11.242,0.014,11.598,0.002
		c3.257-0.252,5.815-2.992,5.815-6.238c0-3.236-2.526-5.969-5.754-6.222C25.715,4.766,24.322,4.765,22.593,4.765z"/>
	<g display="inline">
		<path fill="#FFFFFF" d="M14.438,6.174c-2.751,0-4.981,2.229-4.981,4.981c0,2.751,2.23,4.982,4.981,4.982s4.981-2.23,4.981-4.982
			C19.419,8.404,17.188,6.174,14.438,6.174z M13.654,12.277c-0.307,0.328-0.708,0.492-1.206,0.492c-0.485,0-0.879-0.16-1.183-0.479
			c-0.304-0.318-0.455-0.729-0.455-1.229c0-0.53,0.155-0.962,0.464-1.295s0.719-0.5,1.228-0.5c0.484,0,0.873,0.161,1.168,0.483
			s0.442,0.736,0.442,1.242C14.114,11.521,13.961,11.947,13.654,12.277z M17.697,12.711h-0.739l-1.434-2.19
			c-0.074-0.114-0.128-0.206-0.162-0.276h-0.011c0.013,0.117,0.02,0.297,0.02,0.54v1.926h-0.684V9.325h0.787l1.381,2.129
			c0.092,0.142,0.148,0.231,0.168,0.269h0.011c-0.015-0.08-0.022-0.237-0.022-0.468v-1.93h0.685L17.697,12.711L17.697,12.711z"/>
		<path fill="#FFFFFF" d="M12.481,9.894c-0.283,0-0.505,0.105-0.667,0.314c-0.163,0.21-0.244,0.481-0.244,0.815
			c0,0.329,0.08,0.599,0.238,0.808c0.159,0.209,0.377,0.313,0.654,0.313c0.283,0,0.502-0.101,0.66-0.301
			c0.157-0.201,0.236-0.47,0.236-0.809c0-0.353-0.076-0.631-0.229-0.835C12.976,9.996,12.76,9.894,12.481,9.894z"/>
	</g>
</g>
<g id="switch_x5F_复制" display="none">
	<g display="inline">
		<path fill="#FFFFFF" d="M24.148,9.717c-0.295-0.322-0.686-0.483-1.168-0.483c-0.511,0-0.918,0.167-1.229,0.5
			c-0.31,0.333-0.464,0.765-0.464,1.295c0,0.5,0.15,0.913,0.454,1.231c0.304,0.317,0.696,0.477,1.184,0.477
			c0.496,0,0.898-0.164,1.205-0.492c0.308-0.328,0.46-0.756,0.46-1.284C24.591,10.453,24.443,10.039,24.148,9.717z M23.622,11.846
			c-0.157,0.199-0.378,0.299-0.66,0.299c-0.276,0-0.495-0.104-0.653-0.313s-0.237-0.479-0.237-0.808
			c0-0.334,0.081-0.605,0.243-0.815C22.477,10,22.7,9.895,22.982,9.895c0.277,0,0.494,0.102,0.646,0.307
			c0.152,0.205,0.229,0.483,0.229,0.835C23.857,11.376,23.779,11.645,23.622,11.846z"/>
		<g>
			<path fill="#FFFFFF" d="M26.016,3.767c-0.297-0.001-1.691-0.002-3.423-0.002l-8.278,0.002c-3.996,0-7.248,3.239-7.248,7.22
				c0,3.99,3.251,7.236,7.341,7.236c0.713,0.002,5.326,0.008,8.497,0.008c3.062,0,3.067-0.002,3.073-0.01
				c3.785-0.291,6.75-3.47,6.75-7.234C32.729,7.232,29.796,4.062,26.016,3.767z M25.438,16.139c-2.75,0-4.98-2.23-4.98-4.983
				c0-2.752,2.23-4.98,4.98-4.98c2.752,0,4.981,2.229,4.981,4.98C30.419,13.906,28.188,16.139,25.438,16.139z"/>
		</g>
	</g>
</g>
<g id="图层_18" display="none">
	<g display="inline">
		<path fill="#FFFFFF" d="M26.941,9.873h-1.236v0.891h1.139v0.604h-1.139v1.366h-0.738V9.269h1.975V9.873L26.941,9.873z"/>
		<path fill="#FFFFFF" d="M29.375,9.855h-1.237v0.891h1.14v0.604h-1.14v1.366H27.4V9.252h1.975V9.855z"/>
	</g>
</g>
<g id="数码管" display="none">
	<g id="图层_4" display="inline">
		<g>
			<g>
				<g>
					<path fill="none" stroke="#FFFFFF" stroke-miterlimit="10" d="M30,16.926c0,0.428-0.385,0.773-0.859,0.773h-18.28
						c-0.476,0-0.86-0.348-0.86-0.773V4.973c0-0.427,0.385-0.774,0.86-0.774h18.28C29.615,4.199,30,4.545,30,4.973V16.926z"/>
				</g>
			</g>
			<text transform="matrix(1 0 0 1 12.792 15.3438)" fill="#FFFFFF" font-family="'LcdD'" font-size="13.1153">88</text>
		</g>
	</g>
</g>
<g id="相机快门" display="none">
	<g display="inline">
		<circle fill="none" stroke="#FFFFFF" stroke-miterlimit="10" cx="19.924" cy="11.185" r="7.297"/>
		<g>
			<path fill="#FFFFFF" d="M21.418,9.004l-0.65-3.271c-0.275-0.043-0.554-0.085-0.843-0.085c-1.518,0-2.891,0.613-3.891,1.602
				L21.418,9.004z"/>
			<path fill="#FFFFFF" d="M22.607,11.479l2.502-2.183c-0.597-1.633-1.931-2.891-3.605-3.393L22.607,11.479z"/>
			<path fill="#FFFFFF" d="M18.752,8.859l-3.195-1.042c-0.723,0.936-1.169,2.093-1.169,3.366c0,0.461,0.073,0.902,0.179,1.329
				L18.752,8.859z"/>
			<path fill="#FFFFFF" d="M21.299,13.537l3.018,0.986c0.707-0.933,1.146-2.08,1.146-3.34c0-0.401-0.047-0.791-0.129-1.169
				L21.299,13.537z"/>
			<path fill="#FFFFFF" d="M18.457,13.335l0.655,3.306c0.267,0.039,0.534,0.082,0.813,0.082c1.532,0,2.919-0.623,3.921-1.629
				L18.457,13.335z"/>
			<path fill="#FFFFFF" d="M17.3,11.041l-2.511,2.191c0.626,1.57,1.951,2.765,3.587,3.244L17.3,11.041z"/>
		</g>
	</g>
</g>
<g id="sound" display="none">
	<g display="inline">
		<g>
			<path fill="#FFFFFF" d="M14.863,12.839c0,0.413-0.335,0.747-0.748,0.747h-2.882c-0.414,0-0.748-0.334-0.748-0.747V8.772
				c0-0.414,0.334-0.748,0.748-0.748h2.882c0.413,0,0.748,0.334,0.748,0.748V12.839z"/>
			<path fill="#FFFFFF" d="M19.545,17.641c0,0.412-0.336,0.746-0.748,0.746c-0.176,0-0.571-0.248-0.678-0.355
				c-0.026-0.024-4.587-4.568-4.587-4.568c-0.413,0-0.748-0.334-0.748-0.747V8.772c0-0.414,0.335-0.748,0.748-0.748
				c0,0,4.54-4.394,4.545-4.398c0.114-0.11,0.379-0.491,0.72-0.491c0.412,0,0.748,0.334,0.748,0.748V17.641z"/>
		</g>
		<g>
			<path fill="#FFFFFF" d="M21.62,13.518c-0.655,0.101-0.883-0.797-0.214-1.021c0.794-0.167,1.369-0.878,1.369-1.691
				c0-0.906-0.629-1.459-1.428-1.708c-0.578-0.27-0.178-1.133,0.351-0.977c1.227,0.352,2.12,1.394,2.12,2.685
				C23.818,12.109,22.895,13.249,21.62,13.518z"/>
			<path fill="#FFFFFF" d="M23.575,15.725c-0.704,0.305-1.132-0.593-0.457-0.938c1.556-0.755,2.521-2.298,2.521-4.025
				c0-0.847-0.248-1.688-0.703-2.401c-0.227-0.353-0.5-0.676-0.815-0.954c-0.32-0.283-0.688-0.461-1.037-0.693
				c-0.64-0.475-0.131-1.143,0.444-0.931c0.108,0.044,0.218,0.104,0.32,0.161c1.726,0.962,2.834,2.842,2.834,4.818
				C26.684,12.857,25.463,14.809,23.575,15.725z"/>
			<path fill="#FFFFFF" d="M24.843,17.854c-0.636,0.211-1.022-0.685-0.405-0.961c2.451-1.035,4.035-3.426,4.035-6.088
				c0-2.66-1.585-5.048-4.035-6.085c-0.617-0.323-0.271-1.154,0.404-0.96c2.84,1.2,4.674,3.966,4.674,7.045
				C29.516,13.887,27.682,16.652,24.843,17.854z"/>
		</g>
	</g>
</g>
<g id="按钮1" display="none">
	<g display="inline">
		<rect x="10.984" y="13.271" fill="#FFFFFF" width="18.816" height="3.34"/>
		<rect x="7.363" y="14.367" fill="#FFFFFF" width="25.895" height="3.341"/>
		<path fill="#FFFFFF" d="M29.063,12.139c-1.963,0.01-15.686,0.008-17.336,0v-1.494c0-1.449,1.176-2.624,2.624-2.624h12.085
			c1.449,0,2.627,1.175,2.627,2.624V12.139z"/>
	</g>
</g>
<g id="按钮2" display="none">
	<g display="inline">
		<rect x="10.984" y="13.271" fill="#FFFFFF" width="18.816" height="3.34"/>
		<rect x="7.363" y="14.367" fill="#FFFFFF" width="25.895" height="3.341"/>
		<path fill="#FFFFFF" d="M29.063,12.176c-1.963,0.008-15.686,0.008-17.336,0V7.85c0-1.449,1.176-2.624,2.624-2.624h12.085
			c1.449,0,2.627,1.175,2.627,2.624V12.176z"/>
	</g>
</g>
<g id="温度" display="none">
	<g display="inline">
		<g>
			<g>
				<g>
					<path fill="#FFFFFF" d="M21.262,13.738h-1.34V3.632c0-0.634-0.606-1.149-1.35-1.149c-0.829,0-1.435,0.515-1.435,1.149
						l-0.042,10.204l-1.298-0.125V3.632c0-1.373,1.207-2.489,2.69-2.489c1.567,0,2.773,1.116,2.773,2.489V13.738z"/>
				</g>
			</g>
			<path fill="#FFFFFF" d="M18.53,20.857c-2.4,0-4.353-1.953-4.353-4.353c0-1.446,0.716-2.793,1.914-3.604l1.004,0.936
				c-0.134,0.094-0.456,0.32-0.548,0.402c-0.652,0.568-1.031,1.391-1.031,2.268c0,1.66,1.351,3.012,3.013,3.012
				c1.66,0,3.011-1.352,3.011-3.012c0-0.854-0.279-1.412-0.949-2.209c-0.094-0.111-0.525-0.48-0.649-0.564l1.021-0.834
				c1.201,0.812,1.919,2.16,1.919,3.607C22.882,18.904,20.929,20.857,18.53,20.857z"/>
		</g>
		<g>
			<g>
				<g>
					<path fill="#FFFFFF" d="M17.856,15.559V6.917c0-0.32,0.291-0.578,0.646-0.578h0.025c0.355,0,0.646,0.257,0.646,0.578V15.5"/>
				</g>
			</g>
			<path fill="#FFFFFF" d="M19.155,14.883c0.879,0.23,1.314,1.137,1.314,1.777c0,1.027-0.83,1.857-1.857,1.857
				c-1.029,0-1.859-0.83-1.859-1.857c0-0.641,0.308-1.42,1.115-1.738"/>
		</g>
		<path fill="#FFFFFF" d="M25.82,3.955c0,0.324-0.262,0.586-0.586,0.586h-1.838c-0.324,0-0.586-0.262-0.586-0.586l0,0
			c0-0.324,0.262-0.586,0.586-0.586h1.838C25.559,3.369,25.82,3.631,25.82,3.955L25.82,3.955z"/>
		<path fill="#FFFFFF" d="M25.82,6.635c0,0.323-0.262,0.586-0.586,0.586h-1.838c-0.324,0-0.586-0.263-0.586-0.586l0,0
			c0-0.324,0.262-0.586,0.586-0.586h1.838C25.559,6.049,25.82,6.311,25.82,6.635L25.82,6.635z"/>
		<path fill="#FFFFFF" d="M25.82,9.44c0,0.324-0.262,0.586-0.586,0.586h-1.838c-0.324,0-0.586-0.262-0.586-0.586l0,0
			c0-0.324,0.262-0.586,0.586-0.586h1.838C25.559,8.854,25.82,9.116,25.82,9.44L25.82,9.44z"/>
		<path fill="#FFFFFF" d="M25.82,12.246c0,0.324-0.262,0.586-0.586,0.586h-1.838c-0.324,0-0.586-0.262-0.586-0.586l0,0
			c0-0.324,0.262-0.586,0.586-0.586h1.838C25.559,11.66,25.82,11.922,25.82,12.246L25.82,12.246z"/>
	</g>
</g>
<g id="陀螺仪" display="none">
	<g display="inline">
		<path fill="#FFFFFF" d="M21.561,17.227c-1.024,0-2.068-0.141-3.103-0.414c-4.602-1.227-7.654-4.82-6.804-8.015
			c0.643-2.423,3.306-3.988,6.784-3.988c1.024,0,2.068,0.14,3.104,0.415c4.603,1.225,7.655,4.82,6.806,8.015
			C27.702,15.661,25.038,17.227,21.561,17.227z M18.438,5.56c-3.08,0-5.515,1.378-6.06,3.43c-0.743,2.794,2.07,5.979,6.272,7.097
			c0.971,0.259,1.95,0.39,2.909,0.39c3.08,0,5.518-1.379,6.063-3.431c0.743-2.794-2.071-5.978-6.274-7.097
			C20.376,5.69,19.397,5.56,18.438,5.56z"/>
		<path fill="#FFFFFF" d="M16.449,17.839c-1.474,0-2.604-0.479-3.265-1.388c-0.512-0.697-0.699-1.612-0.54-2.645
			c0.331-2.146,2.117-4.635,4.66-6.494c2.205-1.61,4.646-2.534,6.698-2.534c1.475,0,2.602,0.479,3.264,1.385
			c1.637,2.239-0.175,6.253-4.123,9.141C20.938,16.915,18.499,17.839,16.449,17.839z M24.002,5.53c-1.868,0-4.207,0.893-6.255,2.389
			c-2.388,1.746-4.059,4.046-4.361,6.002c-0.13,0.845,0.006,1.546,0.404,2.089c0.651,0.893,1.805,1.079,2.659,1.079
			c1.866,0,4.203-0.894,6.25-2.39c3.549-2.596,5.326-6.225,3.961-8.092C26.01,5.716,24.855,5.53,24.002,5.53z"/>
		
			<rect x="20.113" y="5.34" transform="matrix(0.9929 0.119 -0.119 0.9929 1.469 -2.355)" fill="#FFFFFF" width="0.689" height="11.57"/>
		
			<rect x="20.026" y="3.962" transform="matrix(0.2475 0.9689 -0.9689 0.2475 26.3091 -11.2442)" fill="#FFFFFF" width="0.736" height="14.708"/>
		<polygon fill="#FFFFFF" points="24.405,18.01 25.23,17.355 14.399,3.618 13.577,4.266 		"/>
		<circle fill="#FFFFFF" cx="13.813" cy="3.598" r="1.291"/>
		
			<ellipse transform="matrix(-0.2519 -0.9678 0.9678 -0.2519 14.3687 33.7366)" fill="#FFFFFF" cx="20.224" cy="11.314" rx="1.401" ry="2.023"/>
		<path fill="#FFFFFF" d="M26.617,18.404c0,0.711-0.578,1.289-1.29,1.289c-0.714,0-1.293-0.578-1.293-1.289
			c0-0.715,0.579-1.293,1.293-1.293C26.039,17.111,26.617,17.689,26.617,18.404z"/>
	</g>
</g>
<g id="电位器" display="none">
	<g display="inline">
		<g>
			<path fill="#FFFFFF" d="M20.73,4.227c-0.221-0.042-0.44-0.079-0.667-0.102V2.553c0.048,0,0.094-0.006,0.143-0.006
				c0.273,0,0.545,0.019,0.813,0.042L20.73,4.227z M19.403,4.091c-0.046-0.001-0.091-0.007-0.136-0.007
				c-0.187,0-0.368,0.016-0.552,0.028l-0.248-1.411c0.306-0.052,0.617-0.093,0.936-0.117V4.091z M18.055,4.188
				c-0.232,0.036-0.461,0.081-0.687,0.136l-0.443-1.216c0.291-0.103,0.588-0.191,0.893-0.266L18.055,4.188z M16.728,4.508
				c-0.227,0.077-0.451,0.162-0.667,0.258L15.479,3.76c0.267-0.151,0.542-0.289,0.826-0.414L16.728,4.508z M15.463,5.06
				c-0.216,0.118-0.423,0.247-0.626,0.383l-0.663-0.79c0.236-0.195,0.481-0.378,0.737-0.548L15.463,5.06z M13.285,6.813
				c-0.169,0.191-0.329,0.391-0.48,0.598l-0.641-0.37c0.153-0.261,0.317-0.512,0.493-0.754L13.285,6.813z M12.436,7.96
				c-0.138,0.223-0.263,0.451-0.379,0.686L11.488,8.44c0.106-0.281,0.228-0.554,0.357-0.82L12.436,7.96z M11.785,9.251
				c-0.098,0.247-0.184,0.5-0.259,0.76l-0.472-0.085c0.063-0.292,0.135-0.58,0.221-0.861L11.785,9.251z M11.365,10.651
				c-0.054,0.266-0.096,0.537-0.124,0.81h-0.393c0.02-0.299,0.051-0.595,0.094-0.884L11.365,10.651z M11.3,13.617
				c0.005,0.039,0.008,0.078,0.015,0.117l-0.362,0.104c-0.008-0.053-0.012-0.106-0.02-0.157L11.3,13.617z M11.192,12.352
				c0,0.205,0.013,0.404,0.029,0.604l-0.366,0.063c-0.024-0.285-0.038-0.57-0.038-0.858c0-0.013,0.001-0.024,0.001-0.037h0.385
				C11.202,12.199,11.192,12.275,11.192,12.352z M13.742,6.334l-0.679-0.569c0.196-0.232,0.404-0.454,0.623-0.665l0.62,0.738
				C14.11,5.995,13.923,6.16,13.742,6.334z M29.941,13.256l-2.625-0.463c0.009-0.146,0.023-0.291,0.023-0.441
				c0-0.076-0.009-0.152-0.012-0.229h2.62c0.005,0.141,0.021,0.277,0.021,0.422C29.97,12.785,29.96,13.021,29.941,13.256z
				 M27.292,11.461c-0.022-0.219-0.058-0.434-0.097-0.648l2.535-0.446c0.076,0.358,0.141,0.723,0.18,1.094H27.292z M27.046,10.165
				c-0.055-0.208-0.119-0.411-0.188-0.612l2.36-0.859c0.136,0.334,0.25,0.677,0.353,1.026L27.046,10.165z M26.612,8.935
				c-0.087-0.194-0.175-0.386-0.275-0.572l2.086-1.205c0.188,0.299,0.357,0.61,0.515,0.931L26.612,8.935z M25.998,7.791
				c-0.115-0.178-0.24-0.348-0.368-0.516l1.765-1.48c0.231,0.259,0.45,0.529,0.654,0.813L25.998,7.791z M25.208,6.767
				c-0.144-0.158-0.29-0.311-0.442-0.458l1.4-1.671c0.27,0.212,0.525,0.438,0.771,0.677L25.208,6.767z M24.271,5.871
				c-0.168-0.135-0.336-0.268-0.515-0.39l1.022-1.769c0.296,0.161,0.584,0.335,0.861,0.525L24.271,5.871z M23.196,5.133
				c-0.188-0.108-0.384-0.205-0.58-0.297l0.647-1.782c0.314,0.106,0.621,0.229,0.922,0.366L23.196,5.133z M22.63,2.869l-0.625,1.714
				c-0.206-0.077-0.416-0.145-0.629-0.204l0.301-1.708C22,2.722,22.316,2.787,22.63,2.869z M26.737,15.453
				c0.088-0.221,0.169-0.445,0.237-0.674l2.491,0.906c-0.122,0.375-0.266,0.742-0.429,1.098L26.737,15.453z M29.652,15.051
				l-2.506-0.912c0.049-0.225,0.082-0.453,0.113-0.684l2.613,0.461C29.82,14.301,29.747,14.68,29.652,15.051z"/>
		</g>
		<circle fill="none" stroke="#FFFFFF" stroke-width="1.25" stroke-miterlimit="10" cx="19.262" cy="12.301" r="6.55"/>
	</g>
</g>
<g id="限位开关" display="none">
	<g display="inline">
		<path fill="#FFFFFF" d="M17.5,12.396c0,0.449-0.364,0.813-0.813,0.813h-8.25c-0.449,0-0.813-0.363-0.813-0.813l0,0
			c0-0.449,0.364-0.813,0.813-0.813h8.25C17.136,11.584,17.5,11.947,17.5,12.396L17.5,12.396z"/>
		<path fill="#FFFFFF" d="M32.459,12.396c0,0.449-0.364,0.813-0.813,0.813h-8.25c-0.449,0-0.813-0.363-0.813-0.813l0,0
			c0-0.449,0.363-0.813,0.813-0.813h8.25C32.095,11.584,32.459,11.947,32.459,12.396L32.459,12.396z"/>
		<path fill="#FFFFFF" d="M21.4,8.226c0.311,0.324,0.299,0.839-0.025,1.149l-3.798,3.607c-0.324,0.311-0.838,0.301-1.149-0.024l0,0
			c-0.311-0.323-0.3-0.838,0.025-1.149l3.798-3.606C20.575,7.892,21.09,7.902,21.4,8.226L21.4,8.226z"/>
	</g>
</g>
<g id="人体红外" display="none">
	<g id="图层_14" display="inline">
		<g>
			<circle fill="#FFFFFF" cx="30.624" cy="12.159" r="1.801"/>
			<g>
				<path fill="#FFFFFF" d="M27.15,15.008c-0.957-0.738-1.506-1.854-1.506-3.063c0-1.288,0.637-2.485,1.703-3.206
					c0.521-0.255,0.946,0.458,0.545,0.804c-0.8,0.54-1.275,1.438-1.275,2.401c0,0.904,0.41,1.74,1.128,2.293
					C28.113,14.633,27.673,15.24,27.15,15.008z"/>
				<path fill="#FFFFFF" d="M25.064,17.064c-1.353-1.258-2.129-3.151-2.129-5.197c0-2.178,0.901-4.212,2.412-5.443
					c0.487-0.262,0.912,0.466,0.608,0.754c-1.351,1.194-2.049,2.891-2.049,4.687c0,1.777,0.663,3.412,1.819,4.486
					C26.141,16.818,25.563,17.335,25.064,17.064z"/>
				<path fill="#FFFFFF" d="M22.667,19.622c-0.588-0.474-1.056-1.261-1.423-1.912c-1.005-1.784-1.467-3.853-1.467-5.892
					c0-3.271,1.222-6.327,3.27-8.174c0.375-0.275,1.014,0.241,0.646,0.724c-1.424,1.293-2.293,3.11-2.688,4.973
					c-0.173,0.813-0.257,1.646-0.257,2.478c0,0.631,0.047,1.263,0.146,1.888c0.311,1.979,1.129,3.749,2.463,5.239
					C23.804,19.385,23.21,20.066,22.667,19.622z"/>
			</g>
			<g>
				<circle fill="#FFFFFF" cx="13.12" cy="2.611" r="2.271"/>
				<path fill="#FFFFFF" d="M14.094,12.534c0,0.565-0.459,1.024-1.024,1.024l0,0c-0.566,0-1.025-0.459-1.025-1.024v-7.89
					c0-0.566,0.458-1.025,1.025-1.025l0,0c0.565,0,1.024,0.458,1.024,1.025V12.534z"/>
				<path fill="#FFFFFF" d="M10.412,21.048c-0.228,0.519-0.833,0.755-1.35,0.524l0,0c-0.518-0.227-0.754-0.832-0.526-1.348
					l3.596-8.162c0.228-0.518,0.832-0.752,1.35-0.524l0,0c0.519,0.228,0.755,0.831,0.527,1.349L10.412,21.048z"/>
				<path fill="#FFFFFF" d="M15.865,21.048c0.228,0.519,0.832,0.755,1.35,0.524l0,0c0.519-0.227,0.755-0.832,0.527-1.348
					l-3.596-8.162c-0.228-0.518-0.832-0.752-1.35-0.524l0,0c-0.519,0.228-0.754,0.831-0.526,1.349L15.865,21.048z"/>
				<path fill="#FFFFFF" d="M15.754,12.477c0.219,0.408,0.73,0.564,1.142,0.344l0,0c0.411-0.219,0.566-0.73,0.346-1.141
					l-3.471-6.472c-0.22-0.412-0.731-0.565-1.143-0.346l0,0c-0.41,0.22-0.565,0.729-0.346,1.141L15.754,12.477z"/>
				<path fill="#FFFFFF" d="M10.523,12.477c-0.221,0.408-0.732,0.564-1.143,0.344l0,0c-0.411-0.219-0.566-0.73-0.346-1.141
					l3.472-6.472c0.22-0.412,0.73-0.565,1.143-0.346l0,0c0.41,0.22,0.565,0.729,0.345,1.141L10.523,12.477z"/>
			</g>
		</g>
	</g>
</g>
<g id="摇杆的值" display="none">
	<g display="inline">
		<g>
			<g>
				<path fill="#FFFFFF" d="M18.883,10.921c-2.565,0-4.653-2.087-4.653-4.653c0-2.565,2.087-4.653,4.653-4.653
					c2.566,0,4.654,2.087,4.654,4.653S21.449,10.921,18.883,10.921z M18.883,2.865c-1.876,0-3.403,1.526-3.403,3.403
					s1.526,3.403,3.403,3.403s3.404-1.527,3.404-3.403S20.76,2.865,18.883,2.865z"/>
				<path fill="#FFFFFF" d="M19.004,20.152c-4.468,0-8.992-1.139-8.992-3.314c0-2.096,4.024-3.07,7.471-3.27l0.072,1.248
					c-4.393,0.252-6.293,1.461-6.293,2.021c0,0.7,2.732,2.063,7.742,2.063s7.743-1.363,7.743-2.063c0-0.657-2.171-1.752-6.099-2.009
					l0.082-1.248c3.353,0.221,7.267,1.205,7.267,3.257C27.997,19.014,23.473,20.152,19.004,20.152z"/>
				<path fill="#FFFFFF" d="M19.005,17.609c-1.298,0-2.31-0.812-2.31-1.405v-6.203h1.25v5.884c0.076,0.176,0.45,0.475,1.06,0.475
					c0.61,0,1.088-0.268,1.151-0.475v-5.884h1.25l-0.012,6.203C21.406,16.859,20.304,17.609,19.005,17.609z"/>
			</g>
			<g>
				<path fill="#FFFFFF" d="M30.387,3.089l-2.168,3.042l2.139,2.999h-1.336l-1.235-1.923c-0.066-0.102-0.16-0.258-0.281-0.47H27.48
					c-0.004,0.022-0.103,0.178-0.293,0.47L25.927,9.13h-1.317l2.203-2.966l-2.104-3.075h1.336l1.213,2.021
					c0.074,0.124,0.164,0.284,0.271,0.481h0.022l1.576-2.502H30.387z"/>
			</g>
		</g>
	</g>
</g>
</svg>
